# Blender 4.4.3
# www.blender.org
mtllib notsquarebullet.mtl
o Plane
v -0.078714 0.000000 1.000000
v 0.078714 0.000000 1.000000
v -0.078714 0.000000 -1.000000
v 0.078714 0.000000 -1.000000
v 0.000000 0.078714 1.000000
v 0.000000 -0.078714 1.000000
v 0.000000 0.078714 -1.000000
v 0.000000 -0.078714 -1.000000
vn -0.0000 1.0000 -0.0000
vn 1.0000 -0.0000 -0.0000
vt 1.000000 0.000000
vt 0.000000 1.000000
vt 0.000000 0.000000
vt 1.000000 1.000000
s 0
f 2/1/1 3/2/1 1/3/1
f 6/1/2 7/2/2 5/3/2
f 2/1/1 4/4/1 3/2/1
f 6/1/2 8/4/2 7/2/2
